<svg width="22" height="24" viewBox="0 0 22 24" fill="none" xmlns="http://www.w3.org/2000/svg">
<path d="M9.35859 0.373594C10.1565 -0.12502 11.1693 -0.12502 11.9672 0.373594L20.1695 5.50016C20.8888 5.94983 21.3258 6.7386 21.3258 7.58688V16.8041C21.3255 17.6829 20.8564 18.4951 20.0953 18.9345L11.893 23.6697C11.1317 24.1091 10.1941 24.1092 9.43281 23.6697L1.23047 18.9345C0.469334 18.4951 0.000245857 17.6829 0 16.8041V7.58688C2.72834e-05 6.73849 0.437596 5.9498 1.15703 5.50016L9.35859 0.373594ZM11.0977 1.765C10.8317 1.59884 10.4941 1.5988 10.2281 1.765L2.02578 6.89156C1.78619 7.04147 1.64065 7.30424 1.64062 7.58688V16.8041C1.64087 17.0968 1.79728 17.367 2.05078 17.5134L10.2531 22.2486C10.5069 22.3951 10.8197 22.3951 11.0734 22.2486L19.275 17.5134C19.5285 17.367 19.6849 17.0968 19.6852 16.8041V7.58688C19.6851 7.3042 19.5396 7.04146 19.3 6.89156L11.0977 1.765ZM10.8969 5.53688C10.9427 5.37678 11.1721 5.38493 11.207 5.54781L12.2812 10.5595C12.2946 10.6218 12.3438 10.6704 12.4062 10.683L17.782 11.758C17.948 11.7912 17.9555 12.0259 17.7922 12.0697L12.4008 13.5072C12.3414 13.5231 12.2966 13.5718 12.2852 13.6322L11.2078 19.3759C11.1759 19.5444 10.9369 19.551 10.8953 19.3845L9.45547 13.6252C9.44135 13.5687 9.39764 13.5237 9.34141 13.5088L3.94453 12.0697C3.78094 12.0261 3.78792 11.7912 3.95391 11.758L9.33672 10.6814C9.3954 10.6697 9.44287 10.6264 9.45938 10.5689L10.8969 5.53688Z" fill="#E9CE60"/>
</svg>
